<?xml version="1.0" encoding="utf-8"?>
<!-- Generator: Adobe Illustrator 16.0.0, SVG Export Plug-In . SVG Version: 6.00 Build 0)  -->
<!DOCTYPE svg PUBLIC "-//W3C//DTD SVG 1.1//EN" "http://www.w3.org/Graphics/SVG/1.1/DTD/svg11.dtd">
<svg version="1.1" id="圖層_1" xmlns="http://www.w3.org/2000/svg" xmlns:xlink="http://www.w3.org/1999/xlink" x="0px" y="0px"
	 width="102.003px" height="8.505px" viewBox="0 0 102.003 8.505" enable-background="new 0 0 102.003 8.505" xml:space="preserve">
<path fill-rule="evenodd" clip-rule="evenodd" fill="#D6D6D6" d="M98.379,1.168c-2.289-0.416-4.669,0.101-6.944-0.6
	c-0.128-0.004-0.256-0.004-0.384-0.009C91.027,0.374,91,0.188,90.988,0c-3.999,0-7.999,0-11.998,0
	c0.014,0.225,0.028,0.451,0.043,0.676c-2.986,0.667-5.969,0.128-8.952-0.129c-0.03-0.183-0.06-0.365-0.09-0.547
	c-4,0-7.999,0-11.999,0c0.015,0.215,0.029,0.431,0.044,0.646c-2.983,0.75-5.963,0.134-8.942-0.102
	c-0.033-0.182-0.064-0.363-0.1-0.545c-4,0-8,0-11.999,0c0.015,0.209,0.03,0.418,0.044,0.628c-3.005,0.648-6.007,0.419-9.009-0.045
	C28.017,0.389,27.995,0.195,27.997,0c-4,0-7.999,0-11.999,0c0.005,0.202,0.01,0.405,0.015,0.607c-3.21,0.555-6.455,0.48-9.683,0.362
	C3.197,0.854,0.934,1.803,0,4.999c0,1,0,2,0,3c0.448,0.204,0.855,0.474,1.393,0.475c32.288,0.064,64.575,0.01,96.863,0.013
	c1.633,0,3.635,0.255,3.747-2.164C102.12,3.785,101.229,1.686,98.379,1.168z"/>
</svg>
